<svg width="20" height="19" viewBox="0 0 20 19" fill="none" xmlns="http://www.w3.org/2000/svg">
<path d="M10.682 0H1.84173C0.824571 0 0 0.817941 0 1.82692V17.1731C0 18.1821 0.824571 19 1.84173 19H10.682C11.6992 19 12.5238 18.1821 12.5238 17.1731V1.82692C12.5238 0.817941 11.6992 0 10.682 0Z" fill="#9DABDC"/>
<path d="M18.1176 8H9.88235C9.39504 8 9 8.50368 9 9.125V9.875C9 10.4963 9.39504 11 9.88235 11H18.1176C18.605 11 19 10.4963 19 9.875V9.125C19 8.50368 18.605 8 18.1176 8Z" fill="#5F79D3"/>
<path d="M19.8083 9.99163C20.0638 9.71288 20.0638 9.28713 19.8083 9.00838L15.7393 4.56958C15.2863 4.07543 14.4575 4.39332 14.4575 5.06121V13.9388C14.4575 14.6067 15.2863 14.9246 15.7393 14.4304L19.8083 9.99163Z" fill="#5F79D3"/>
</svg>
