<svg width="25" height="25" viewBox="0 0 25 25" fill="none" xmlns="http://www.w3.org/2000/svg">
<path fill-rule="evenodd" clip-rule="evenodd" d="M0 2C0 0.895429 0.895431 0 2 0H22.3755C23.48 0 24.3755 0.895431 24.3755 2V22.3755C24.3755 23.48 23.48 24.3755 22.3755 24.3755H2C0.895429 24.3755 0 23.48 0 22.3755V2ZM14 10C14 12.2091 12.2091 14 10 14C7.79086 14 6 12.2091 6 10C6 7.79086 7.79086 6 10 6C12.2091 6 14 7.79086 14 10ZM9.82415 15.2526C5.69099 15.2526 2.30424 18.4483 2 22.5037H17.6483C17.3441 18.4483 13.9573 15.2526 9.82415 15.2526ZM14.9713 10.0616C15.0223 11.316 14.4899 12.459 13.6155 13.2285C14.2721 13.8685 15.1805 14.2475 16.1689 14.2073C18.0763 14.1298 19.5597 12.5207 19.4822 10.6133C19.4046 8.70592 17.7955 7.22254 15.8882 7.30007C15.2594 7.32563 14.6768 7.51759 14.1809 7.8318C14.6478 8.45635 14.9372 9.22359 14.9713 10.0616ZM13.3186 15.2419C15.4578 16.0911 17.1111 17.8457 17.8479 20H21.9382C21.4832 17.2286 19.1765 14.9926 16.2625 14.7597C15.2256 14.6768 14.2217 14.8563 13.3186 15.2419Z" fill="#464646"/>
</svg>
