<svg width="18" height="17" viewBox="0 0 18 17" fill="none" xmlns="http://www.w3.org/2000/svg">
<path d="M0 5.09735C0 4.70239 0.330059 4.3822 0.737203 4.3822H4.66895V11.5337H0.737203C0.330059 11.5337 0 11.2135 0 10.8185V5.09735Z" fill="#9DABDC"/>
<path d="M4.66895 11.5085V4.35707L17.3454 0.0274543C17.6651 -0.0817369 18 0.148367 18 0.47716V15.3895C18 15.7183 17.665 15.9484 17.3453 15.8392L4.66895 11.5085Z" fill="#5F79D3"/>
<path d="M3.83218 9.06665H3.13541C2.68646 9.06665 2.32251 9.42184 2.32251 9.85998V16.2067C2.32251 16.6448 2.68646 17 3.13541 17H3.83218C4.28113 17 4.64508 16.6448 4.64508 16.2067V9.85998C4.64508 9.42184 4.28113 9.06665 3.83218 9.06665Z" fill="#9DABDC"/>
</svg>
