<svg width="25" height="25" viewBox="0 0 25 25" fill="none" xmlns="http://www.w3.org/2000/svg">
<path d="M0 2.31714C0 1.21257 0.895431 0.317139 2 0.317139H22.3755C23.48 0.317139 24.3755 1.21257 24.3755 2.31714V22.6926C24.3755 23.7972 23.48 24.6926 22.3755 24.6926H2C0.895429 24.6926 0 23.7972 0 22.6926V2.31714Z" fill="#333333"/>
<path fill-rule="evenodd" clip-rule="evenodd" d="M13.5998 5H10.3998L10.0918 7.30973C9.41609 7.5362 8.79401 7.87967 8.24964 8.31608L6.04221 7.32472L4.35692 10.045L6.17866 11.54C6.06181 12.0074 5.99978 12.4964 5.99978 13C5.99978 13.4858 6.05752 13.9582 6.16652 14.4105L4.35352 15.9187L6.05688 18.6277L8.20339 17.6465C8.75867 18.1007 9.39687 18.4574 10.0918 18.6903L10.3998 21H13.5998L13.9077 18.6903C14.6091 18.4552 15.2527 18.0941 15.8116 17.6338L17.8082 18.6425L19.6161 16.0022L17.8357 14.3994C17.943 13.9504 17.9998 13.4818 17.9998 13C17.9998 12.4762 17.9327 11.9682 17.8066 11.4839L19.5801 10.0883L17.951 7.33403L15.7111 8.28524C15.1761 7.86348 14.5675 7.53084 13.9077 7.30973L13.5998 5ZM12 16C13.6569 16 15 14.6569 15 13C15 11.3431 13.6569 10 12 10C10.3431 10 9 11.3431 9 13C9 14.6569 10.3431 16 12 16Z" fill="white"/>
</svg>
